<svg xmlns="http://www.w3.org/2000/svg" viewBox="0 0 600 600"><defs><style>.cls-1{fill:#fff;}</style></defs><g id="Layer_2" data-name="Layer 2"><g id="Layer_1-2" data-name="Layer 1"><path class="cls-1" d="M303.39,0C175.5,0,99,105.85,107.23,209.32c3.73,46.8,26.71,92.08,64.71,127.49a215.4,215.4,0,0,0,45.25,32.51,107.56,107.56,0,0,1-23.77-51.77c-8.5-52,25.84-128.49,113.54-128.49,94.32,0,198.16,89.67,206.94,199.93,5.37,67.45-20.2,128.17-63.43,170.59C539.88,507.65,600,410.85,600,300c0-119.94-70.38-223.44-172.1-271.45C390.38,10.84,345.76,0,303.39,0Z"/><path class="cls-1" d="M296.61,600C424.5,600,501,494.15,492.77,390.68c-3.73-46.8-26.71-92.08-64.71-127.49a215.4,215.4,0,0,0-45.25-32.51,107.56,107.56,0,0,1,23.77,51.77c8.5,52-25.84,128.49-113.54,128.49C198.72,410.94,94.88,321.27,86.1,211c-5.37-67.45,20.2-128.17,63.43-170.59C60.12,92.35,0,189.15,0,300,0,419.94,70.38,523.44,172.1,571.45,209.62,589.16,254.24,600,296.61,600Z"/></g></g></svg>